<?xml version="1.0" encoding="UTF-8"?>
<!DOCTYPE svg PUBLIC "-//W3C//DTD SVG 1.1//EN" "http://www.w3.org/Graphics/SVG/1.1/DTD/svg11.dtd">
<svg version="1.2" width="145.63mm" height="145.63mm" viewBox="0 0 14563 14563" preserveAspectRatio="xMidYMid" fill-rule="evenodd" stroke-width="28.222" stroke-linejoin="round" xmlns="http://www.w3.org/2000/svg" xmlns:ooo="http://xml.openoffice.org/svg/export" xmlns:xlink="http://www.w3.org/1999/xlink" xmlns:presentation="http://sun.com/xmlns/staroffice/presentation" xmlns:smil="http://www.w3.org/2001/SMIL20/" xmlns:anim="urn:oasis:names:tc:opendocument:xmlns:animation:1.0" xml:space="preserve">
 <defs class="ClipPathGroup">
  <clipPath id="presentation_clip_path" clipPathUnits="userSpaceOnUse">
   <rect x="0" y="0" width="14563" height="14563"/>
  </clipPath>
  <clipPath id="presentation_clip_path_shrink" clipPathUnits="userSpaceOnUse">
   <rect x="14" y="14" width="14534" height="14534"/>
  </clipPath>
 </defs>
 <defs class="TextShapeIndex">
  <g ooo:slide="id1" ooo:id-list="id3 id4 id5"/>
 </defs>
 <defs class="EmbeddedBulletChars">
  <g id="bullet-char-template-57356" transform="scale(0.00048828125,-0.00048828125)">
   <path d="M 580,1141 L 1163,571 580,0 -4,571 580,1141 Z"/>
  </g>
  <g id="bullet-char-template-57354" transform="scale(0.00048828125,-0.00048828125)">
   <path d="M 8,1128 L 1137,1128 1137,0 8,0 8,1128 Z"/>
  </g>
  <g id="bullet-char-template-10146" transform="scale(0.00048828125,-0.00048828125)">
   <path d="M 174,0 L 602,739 174,1481 1456,739 174,0 Z M 1358,739 L 309,1346 659,739 1358,739 Z"/>
  </g>
  <g id="bullet-char-template-10132" transform="scale(0.00048828125,-0.00048828125)">
   <path d="M 2015,739 L 1276,0 717,0 1260,543 174,543 174,936 1260,936 717,1481 1274,1481 2015,739 Z"/>
  </g>
  <g id="bullet-char-template-10007" transform="scale(0.00048828125,-0.00048828125)">
   <path d="M 0,-2 C -7,14 -16,27 -25,37 L 356,567 C 262,823 215,952 215,954 215,979 228,992 255,992 264,992 276,990 289,987 310,991 331,999 354,1012 L 381,999 492,748 772,1049 836,1024 860,1049 C 881,1039 901,1025 922,1006 886,937 835,863 770,784 769,783 710,716 594,584 L 774,223 C 774,196 753,168 711,139 L 727,119 C 717,90 699,76 672,76 641,76 570,178 457,381 L 164,-76 C 142,-110 111,-127 72,-127 30,-127 9,-110 8,-76 1,-67 -2,-52 -2,-32 -2,-23 -1,-13 0,-2 Z"/>
  </g>
  <g id="bullet-char-template-10004" transform="scale(0.00048828125,-0.00048828125)">
   <path d="M 285,-33 C 182,-33 111,30 74,156 52,228 41,333 41,471 41,549 55,616 82,672 116,743 169,778 240,778 293,778 328,747 346,684 L 369,508 C 377,444 397,411 428,410 L 1163,1116 C 1174,1127 1196,1133 1229,1133 1271,1133 1292,1118 1292,1087 L 1292,965 C 1292,929 1282,901 1262,881 L 442,47 C 390,-6 338,-33 285,-33 Z"/>
  </g>
  <g id="bullet-char-template-9679" transform="scale(0.00048828125,-0.00048828125)">
   <path d="M 813,0 C 632,0 489,54 383,161 276,268 223,411 223,592 223,773 276,916 383,1023 489,1130 632,1184 813,1184 992,1184 1136,1130 1245,1023 1353,916 1407,772 1407,592 1407,412 1353,268 1245,161 1136,54 992,0 813,0 Z"/>
  </g>
  <g id="bullet-char-template-8226" transform="scale(0.00048828125,-0.00048828125)">
   <path d="M 346,457 C 273,457 209,483 155,535 101,586 74,649 74,723 74,796 101,859 155,911 209,963 273,989 346,989 419,989 480,963 531,910 582,859 608,796 608,723 608,648 583,586 532,535 482,483 420,457 346,457 Z"/>
  </g>
  <g id="bullet-char-template-8211" transform="scale(0.00048828125,-0.00048828125)">
   <path d="M -4,459 L 1135,459 1135,606 -4,606 -4,459 Z"/>
  </g>
  <g id="bullet-char-template-61548" transform="scale(0.00048828125,-0.00048828125)">
   <path d="M 173,740 C 173,903 231,1043 346,1159 462,1274 601,1332 765,1332 928,1332 1067,1274 1183,1159 1299,1043 1357,903 1357,740 1357,577 1299,437 1183,322 1067,206 928,148 765,148 601,148 462,206 346,322 231,437 173,577 173,740 Z"/>
  </g>
 </defs>
 <g>
  <g id="id2" class="Master_Slide">
   <g id="bg-id2" class="Background"/>
   <g id="bo-id2" class="BackgroundObjects"/>
  </g>
 </g>
 <g class="SlideGroup">
  <g>
   <g id="container-id1">
    <g id="id1" class="Slide" clip-path="url(#presentation_clip_path)">
     <g class="Page">
      <g class="Group">
       <g class="Graphic">
        <g id="id3">
         <rect class="BoundingBox" stroke="none" fill="none" x="0" y="0" width="14564" height="14564"/>
         <defs>
          <clipPath id="clip_path_1" clipPathUnits="userSpaceOnUse">
           <path d="M 0,0 L 14563,0 14563,14563 0,14563 0,0 Z"/>
          </clipPath>
         </defs>
         <g clip-path="url(#clip_path_1)">
          <path fill="rgb(50,52,54)" stroke="none" d="M 3799,14563 L 3166,14563 2849,13297 4116,13297 3799,14563 3799,14563 Z M 11714,13297 L 10447,13297 10764,14563 11397,14563 11714,13297 11714,13297 Z"/>
          <path fill="rgb(74,76,78)" stroke="none" d="M 7590,624 L 7136,1873 C 7112,1939 7039,1973 6973,1949 L 6944,1938 6294,3723 5104,3290 5754,1505 5724,1495 C 5658,1471 5624,1398 5648,1332 L 6103,83 C 6127,18 6200,-16 6265,8 L 7515,462 C 7580,486 7614,559 7590,624 L 7590,624 Z M 3758,5598 L 3392,6604 C 3373,6655 3399,6711 3450,6729 L 3450,6729 C 3485,6742 3510,6773 3514,6810 L 3541,7041 C 3545,7078 3570,7109 3604,7122 L 3788,7189 C 3823,7201 3862,7193 3889,7168 L 4058,7008 C 4085,6982 4124,6974 4159,6987 L 4159,6987 C 4210,7005 4266,6979 4284,6928 L 4650,5923 C 4669,5872 4643,5816 4592,5797 L 3883,5540 C 3833,5521 3776,5547 3758,5598 L 3758,5598 Z M 4948,6031 L 4582,7037 C 4563,7087 4589,7144 4640,7162 L 4640,7162 C 4675,7175 4700,7206 4704,7243 L 4731,7474 C 4735,7511 4760,7542 4794,7555 L 4978,7622 C 5013,7634 5052,7626 5079,7601 L 5248,7441 C 5275,7415 5314,7407 5349,7420 L 5349,7420 C 5400,7438 5456,7412 5474,7361 L 5840,6356 C 5859,6305 5833,6249 5782,6230 L 5073,5973 C 5023,5954 4966,5980 4948,6031 L 4948,6031 Z M 6332,9183 L 2533,9183 C 2358,9183 2216,9325 2216,9500 2216,9674 2358,9816 2533,9816 L 3166,9816 C 3166,9991 3308,10133 3482,10133 L 3482,12031 5382,12031 5382,10133 C 5557,10133 5699,9991 5699,9816 L 6332,9816 C 6507,9816 6648,9674 6648,9500 6648,9325 6507,9183 6332,9183 L 6332,9183 Z M 12347,12981 L 2216,12981 2216,13613 C 2216,13788 2358,13930 2533,13930 L 12030,13930 C 12205,13930 12347,13788 12347,13613 L 12347,12981 12347,12981 Z"/>
          <path fill="rgb(50,52,54)" stroke="none" d="M 5657,6859 L 3575,6101 3900,5209 5982,5966 5657,6859 5657,6859 Z M 5699,9816 L 5699,9816 3166,9816 3166,9816 C 3166,9991 3308,10133 3482,10133 L 5382,10133 C 5557,10133 5699,9991 5699,9816 L 5699,9816 Z"/>
          <path fill="rgb(214,207,186)" stroke="none" d="M 12347,11939 L 12347,13297 2216,13297 2216,11939 C 2216,11795 2273,11658 2374,11557 2476,11455 2613,11398 2757,11398 L 7915,11398 7915,8234 C 7915,7884 8198,7601 8548,7601 L 8864,7601 8864,6124 6543,5351 6171,6372 C 6112,6536 5930,6621 5766,6561 L 3683,5804 C 3519,5744 3434,5562 3494,5398 L 4360,3019 C 4480,2691 4843,2521 5172,2641 L 6659,3182 C 6966,3293 7134,3617 7058,3927 L 10368,4557 C 10965,4670 11397,5192 11397,5800 L 11397,6019 11397,6968 11397,7686 C 11586,7796 11714,8000 11714,8234 L 11714,11398 11806,11398 C 11950,11398 12087,11455 12189,11557 12290,11658 12347,11795 12347,11939 L 12347,11939 Z"/>
          <path fill="rgb(74,76,78)" stroke="none" d="M 6805,4916 L 4035,3911 4144,3614 6913,4618 6805,4916 6805,4916 Z"/>
          <path fill="rgb(174,169,154)" stroke="none" d="M 7115,4199 L 7115,5541 6543,5351 7038,3993 C 7038,3993 7038,3993 7038,3993 7086,4049 7115,4121 7115,4199 L 7115,4199 Z M 11397,7284 L 8864,7284 8864,7601 11397,7601 11397,7284 11397,7284 Z M 11714,11082 L 7915,11082 7915,11398 11714,11398 11714,11082 11714,11082 Z"/>
          <path fill="rgb(50,52,54)" stroke="none" d="M 11239,9341 C 11239,10128 10601,10766 9814,10766 9027,10766 8390,10128 8390,9341 8390,8555 9027,7917 9814,7917 10601,7917 11239,8555 11239,9341 L 11239,9341 Z"/>
          <path fill="rgb(74,76,78)" stroke="none" d="M 10922,9341 C 10922,9953 10426,10449 9814,10449 9202,10449 8706,9953 8706,9341 8706,8730 9202,8234 9814,8234 10426,8234 10922,8730 10922,9341 L 10922,9341 Z"/>
         </g>
        </g>
       </g>
       <g class="com.sun.star.drawing.ClosedBezierShape">
        <g id="id4">
         <rect class="BoundingBox" stroke="none" fill="none" x="8257" y="294" width="5724" height="3741"/>
         <path fill="rgb(53,169,188)" stroke="none" d="M 8642,348 C 8700,348 8757,363 8807,392 8857,421 8899,463 8928,513 8957,563 8972,620 8972,678 L 8972,1448 C 9124,1311 9290,1191 9468,1089 9919,828 10432,691 10954,691 11475,691 11988,828 12440,1089 12892,1350 13267,1725 13528,2177 13787,2625 13924,3133 13926,3651 13926,3708 13911,3765 13882,3815 13853,3865 13811,3907 13761,3936 13711,3965 13654,3980 13596,3980 13538,3980 13482,3965 13431,3936 13381,3907 13339,3865 13310,3815 13281,3765 13265,3708 13265,3651 13263,3249 13157,2854 12956,2507 12754,2155 12461,1864 12109,1661 11758,1458 11359,1351 10954,1351 10548,1351 10149,1458 9798,1661 9635,1755 9484,1869 9349,1999 L 10293,1999 C 10351,1999 10407,2015 10458,2044 10508,2073 10550,2113 10579,2164 10608,2214 10624,2272 10624,2330 10624,2388 10608,2445 10579,2495 10550,2545 10508,2587 10458,2616 10407,2645 10351,2660 10293,2660 L 8642,2660 C 8584,2660 8526,2645 8476,2616 8425,2587 8385,2545 8356,2495 8327,2445 8311,2388 8311,2330 L 8311,678 C 8311,620 8327,563 8356,513 8385,463 8425,421 8476,392 8526,363 8584,348 8642,348 Z"/>
         <path fill="none" stroke="rgb(74,76,78)" stroke-width="106" stroke-linejoin="miter" d="M 8642,348 C 8700,348 8757,363 8807,392 8857,421 8899,463 8928,513 8957,563 8972,620 8972,678 L 8972,1448 C 9124,1311 9290,1191 9468,1089 9919,828 10432,691 10954,691 11475,691 11988,828 12440,1089 12892,1350 13267,1725 13528,2177 13787,2625 13924,3133 13926,3651 13926,3708 13911,3765 13882,3815 13853,3865 13811,3907 13761,3936 13711,3965 13654,3980 13596,3980 13538,3980 13482,3965 13431,3936 13381,3907 13339,3865 13310,3815 13281,3765 13265,3708 13265,3651 13263,3249 13157,2854 12956,2507 12754,2155 12461,1864 12109,1661 11758,1458 11359,1351 10954,1351 10548,1351 10149,1458 9798,1661 9635,1755 9484,1869 9349,1999 L 10293,1999 C 10351,1999 10407,2015 10458,2044 10508,2073 10550,2113 10579,2164 10608,2214 10624,2272 10624,2330 10624,2388 10608,2445 10579,2495 10550,2545 10508,2587 10458,2616 10407,2645 10351,2660 10293,2660 L 8642,2660 C 8584,2660 8526,2645 8476,2616 8425,2587 8385,2545 8356,2495 8327,2445 8311,2388 8311,2330 L 8311,678 C 8311,620 8327,563 8356,513 8385,463 8425,421 8476,392 8526,363 8584,348 8642,348 Z"/>
        </g>
       </g>
       <g class="com.sun.star.drawing.ClosedBezierShape">
        <g id="id5">
         <rect class="BoundingBox" stroke="none" fill="none" x="7927" y="3267" width="5724" height="3741"/>
         <path fill="rgb(53,169,188)" stroke="none" d="M 8311,3321 C 8369,3321 8426,3336 8476,3365 8527,3394 8568,3436 8597,3486 8626,3536 8642,3593 8642,3651 8642,4055 8749,4453 8951,4803 9154,5155 9446,5447 9798,5650 10149,5853 10548,5959 10954,5959 11359,5959 11759,5853 12109,5650 12276,5553 12430,5436 12568,5302 L 11614,5302 C 11556,5302 11500,5286 11449,5257 11399,5228 11357,5188 11328,5137 11299,5087 11283,5029 11283,4971 11283,4913 11299,4856 11328,4806 11357,4756 11399,4714 11449,4685 11500,4656 11556,4641 11614,4641 L 13265,4641 C 13323,4641 13381,4656 13431,4685 13482,4714 13522,4756 13551,4806 13580,4856 13596,4913 13596,4971 L 13596,6623 C 13596,6681 13580,6738 13551,6788 13522,6838 13482,6880 13431,6909 13381,6938 13323,6953 13265,6953 13207,6953 13150,6938 13100,6909 13050,6880 13008,6838 12979,6788 12950,6738 12935,6681 12935,6623 L 12935,5853 C 12783,5990 12617,6110 12439,6212 11988,6473 11475,6610 10954,6610 10432,6610 9919,6473 9467,6212 9015,5951 8640,5576 8379,5124 8120,4676 7983,4168 7981,3651 7981,3593 7996,3536 8025,3486 8054,3436 8096,3394 8146,3365 8196,3336 8253,3321 8311,3321 Z"/>
         <path fill="none" stroke="rgb(74,76,78)" stroke-width="106" stroke-linejoin="miter" d="M 8311,3321 C 8369,3321 8426,3336 8476,3365 8527,3394 8568,3436 8597,3486 8626,3536 8642,3593 8642,3651 8642,4055 8749,4453 8951,4803 9154,5155 9446,5447 9798,5650 10149,5853 10548,5959 10954,5959 11359,5959 11759,5853 12109,5650 12276,5553 12430,5436 12568,5302 L 11614,5302 C 11556,5302 11500,5286 11449,5257 11399,5228 11357,5188 11328,5137 11299,5087 11283,5029 11283,4971 11283,4913 11299,4856 11328,4806 11357,4756 11399,4714 11449,4685 11500,4656 11556,4641 11614,4641 L 13265,4641 C 13323,4641 13381,4656 13431,4685 13482,4714 13522,4756 13551,4806 13580,4856 13596,4913 13596,4971 L 13596,6623 C 13596,6681 13580,6738 13551,6788 13522,6838 13482,6880 13431,6909 13381,6938 13323,6953 13265,6953 13207,6953 13150,6938 13100,6909 13050,6880 13008,6838 12979,6788 12950,6738 12935,6681 12935,6623 L 12935,5853 C 12783,5990 12617,6110 12439,6212 11988,6473 11475,6610 10954,6610 10432,6610 9919,6473 9467,6212 9015,5951 8640,5576 8379,5124 8120,4676 7983,4168 7981,3651 7981,3593 7996,3536 8025,3486 8054,3436 8096,3394 8146,3365 8196,3336 8253,3321 8311,3321 Z"/>
        </g>
       </g>
      </g>
     </g>
    </g>
   </g>
  </g>
 </g>
</svg>